<mxfile host="app.diagrams.net" agent="Mozilla/5.0 (Windows NT 10.0; Win64; x64) AppleWebKit/537.36 (KHTML, like Gecko) Chrome/135.0.0.0 Safari/537.36" version="26.2.14">
  <diagram name="Page-1" id="uQzfv95U5xmaEXHzH_WI">
    <mxGraphModel dx="827" dy="487" grid="1" gridSize="10" guides="1" tooltips="1" connect="1" arrows="1" fold="1" page="1" pageScale="1" pageWidth="850" pageHeight="1100" background="#FFFFFF" math="0" shadow="0">
      <root>
        <mxCell id="0" />
        <mxCell id="1" parent="0" />
        <mxCell id="BJ3bIT9rNDif0ryup47i-53" value="" style="group;strokeColor=none;" vertex="1" connectable="0" parent="1">
          <mxGeometry x="360" y="30" width="170" height="480" as="geometry" />
        </mxCell>
        <mxCell id="BJ3bIT9rNDif0ryup47i-19" value="" style="rounded=0;whiteSpace=wrap;html=1;fillColor=#f5f5f5;gradientColor=light-dark(#0a0a0a, #535353);strokeColor=none;strokeWidth=0;gradientDirection=north;" vertex="1" parent="BJ3bIT9rNDif0ryup47i-53">
          <mxGeometry y="210" width="80" height="30" as="geometry" />
        </mxCell>
        <mxCell id="BJ3bIT9rNDif0ryup47i-16" value="" style="rounded=0;whiteSpace=wrap;html=1;fillColor=#f5f5f5;gradientColor=light-dark(#0a0a0a, #535353);strokeColor=none;strokeWidth=0;gradientDirection=north;" vertex="1" parent="BJ3bIT9rNDif0ryup47i-53">
          <mxGeometry y="180" width="80" height="30" as="geometry" />
        </mxCell>
        <mxCell id="BJ3bIT9rNDif0ryup47i-17" value="" style="rounded=0;whiteSpace=wrap;html=1;fillColor=#f5f5f5;gradientColor=light-dark(#0a0a0a, #535353);strokeColor=none;strokeWidth=0;gradientDirection=north;" vertex="1" parent="BJ3bIT9rNDif0ryup47i-53">
          <mxGeometry y="120" width="80" height="30" as="geometry" />
        </mxCell>
        <mxCell id="BJ3bIT9rNDif0ryup47i-18" value="" style="rounded=0;whiteSpace=wrap;html=1;fillColor=#f5f5f5;gradientColor=light-dark(#0a0a0a, #535353);strokeColor=none;strokeWidth=0;gradientDirection=north;" vertex="1" parent="BJ3bIT9rNDif0ryup47i-53">
          <mxGeometry y="150" width="80" height="30" as="geometry" />
        </mxCell>
        <mxCell id="BJ3bIT9rNDif0ryup47i-15" value="" style="rounded=0;whiteSpace=wrap;html=1;fillColor=#f5f5f5;gradientColor=light-dark(#0a0a0a, #535353);strokeColor=none;strokeWidth=0;gradientDirection=north;" vertex="1" parent="BJ3bIT9rNDif0ryup47i-53">
          <mxGeometry y="90" width="80" height="30" as="geometry" />
        </mxCell>
        <mxCell id="BJ3bIT9rNDif0ryup47i-14" value="" style="rounded=0;whiteSpace=wrap;html=1;fillColor=#f5f5f5;gradientColor=light-dark(#0a0a0a, #535353);strokeColor=none;strokeWidth=0;gradientDirection=north;" vertex="1" parent="BJ3bIT9rNDif0ryup47i-53">
          <mxGeometry y="60" width="80" height="30" as="geometry" />
        </mxCell>
        <mxCell id="BJ3bIT9rNDif0ryup47i-13" value="" style="rounded=0;whiteSpace=wrap;html=1;fillColor=#f5f5f5;gradientColor=light-dark(#0a0a0a, #535353);strokeColor=none;strokeWidth=0;gradientDirection=north;" vertex="1" parent="BJ3bIT9rNDif0ryup47i-53">
          <mxGeometry y="30" width="80" height="30" as="geometry" />
        </mxCell>
        <mxCell id="BJ3bIT9rNDif0ryup47i-12" value="" style="rounded=0;whiteSpace=wrap;html=1;fillColor=#f5f5f5;gradientColor=light-dark(#0a0a0a, #535353);strokeColor=none;strokeWidth=0;gradientDirection=north;" vertex="1" parent="BJ3bIT9rNDif0ryup47i-53">
          <mxGeometry width="80" height="30" as="geometry" />
        </mxCell>
        <mxCell id="BJ3bIT9rNDif0ryup47i-93" value="" style="triangle;whiteSpace=wrap;html=1;rotation=90;strokeColor=none;gradientColor=default;gradientDirection=west;fillColor=default;" vertex="1" parent="BJ3bIT9rNDif0ryup47i-53">
          <mxGeometry x="10" y="230" width="60" height="80" as="geometry" />
        </mxCell>
      </root>
    </mxGraphModel>
  </diagram>
</mxfile>
